<mxfile host="app.diagrams.net" modified="2023-12-09T14:54:43.323Z" agent="Mozilla/5.0 (Windows NT 10.0; Win64; x64) AppleWebKit/537.36 (KHTML, like Gecko) Chrome/120.0.0.0 Safari/537.36" etag="j5eeGOz9ow5gkRNa97aa" version="22.1.7" type="device">
  <diagram name="Page-1" id="yqf8afnavq7rlK2YD-Sl">
    <mxGraphModel dx="989" dy="564" grid="1" gridSize="10" guides="1" tooltips="1" connect="1" arrows="1" fold="1" page="1" pageScale="1" pageWidth="827" pageHeight="1169" math="0" shadow="0">
      <root>
        <mxCell id="0" />
        <mxCell id="1" parent="0" />
        <mxCell id="9J4szbFEpjNWS1YqSKhd-1" value="&lt;b&gt;&lt;br&gt;ScheduleSystem&lt;/b&gt;" style="swimlane;fontStyle=0;align=center;verticalAlign=top;childLayout=stackLayout;horizontal=1;startSize=55;horizontalStack=0;resizeParent=1;resizeParentMax=0;resizeLast=0;collapsible=0;marginBottom=0;html=1;whiteSpace=wrap;" vertex="1" parent="1">
          <mxGeometry x="344" y="40" width="166" height="143" as="geometry" />
        </mxCell>
        <mxCell id="9J4szbFEpjNWS1YqSKhd-3" value="- process: List&amp;lt;Process&amp;gt;" style="text;html=1;strokeColor=none;fillColor=none;align=left;verticalAlign=middle;spacingLeft=4;spacingRight=4;overflow=hidden;rotatable=0;points=[[0,0.5],[1,0.5]];portConstraint=eastwest;whiteSpace=wrap;" vertex="1" parent="9J4szbFEpjNWS1YqSKhd-1">
          <mxGeometry y="55" width="166" height="20" as="geometry" />
        </mxCell>
        <mxCell id="9J4szbFEpjNWS1YqSKhd-9" value="- scheduler: Scheduler" style="text;html=1;strokeColor=none;fillColor=none;align=left;verticalAlign=middle;spacingLeft=4;spacingRight=4;overflow=hidden;rotatable=0;points=[[0,0.5],[1,0.5]];portConstraint=eastwest;whiteSpace=wrap;" vertex="1" parent="9J4szbFEpjNWS1YqSKhd-1">
          <mxGeometry y="75" width="166" height="20" as="geometry" />
        </mxCell>
        <mxCell id="9J4szbFEpjNWS1YqSKhd-6" value="" style="line;strokeWidth=1;fillColor=none;align=left;verticalAlign=middle;spacingTop=-1;spacingLeft=3;spacingRight=3;rotatable=0;labelPosition=right;points=[];portConstraint=eastwest;" vertex="1" parent="9J4szbFEpjNWS1YqSKhd-1">
          <mxGeometry y="95" width="166" height="8" as="geometry" />
        </mxCell>
        <mxCell id="9J4szbFEpjNWS1YqSKhd-7" value="operations" style="text;html=1;strokeColor=none;fillColor=none;align=center;verticalAlign=middle;spacingLeft=4;spacingRight=4;overflow=hidden;rotatable=0;points=[[0,0.5],[1,0.5]];portConstraint=eastwest;whiteSpace=wrap;" vertex="1" parent="9J4szbFEpjNWS1YqSKhd-1">
          <mxGeometry y="103" width="166" height="20" as="geometry" />
        </mxCell>
        <mxCell id="9J4szbFEpjNWS1YqSKhd-8" value="operation1" style="text;html=1;strokeColor=none;fillColor=none;align=left;verticalAlign=middle;spacingLeft=4;spacingRight=4;overflow=hidden;rotatable=0;points=[[0,0.5],[1,0.5]];portConstraint=eastwest;whiteSpace=wrap;" vertex="1" parent="9J4szbFEpjNWS1YqSKhd-1">
          <mxGeometry y="123" width="166" height="20" as="geometry" />
        </mxCell>
      </root>
    </mxGraphModel>
  </diagram>
</mxfile>
